<mxfile host="app.diagrams.net" modified="2023-07-21T06:04:17.376Z" agent="Mozilla/5.0 (Windows NT 10.0; Win64; x64) AppleWebKit/537.36 (KHTML, like Gecko) Chrome/115.0.0.0 Safari/537.36" etag="UnWtlSHuuuYybr038dXL" version="21.6.5" type="google">
  <diagram name="Page-1" id="Ysd-fXGTrzWwFcHbpChq">
    <mxGraphModel grid="1" page="1" gridSize="10" guides="1" tooltips="1" connect="1" arrows="1" fold="1" pageScale="1" pageWidth="850" pageHeight="1100" math="0" shadow="0">
      <root>
        <mxCell id="0" />
        <mxCell id="1" parent="0" />
        <mxCell id="jOzTmoHo1dJMJgfgYXoY-2" value="" style="rounded=1;whiteSpace=wrap;html=1;fillColor=#dae8fc;strokeColor=#6c8ebf;" vertex="1" parent="1">
          <mxGeometry x="282" y="110" width="290" height="810" as="geometry" />
        </mxCell>
        <mxCell id="jOzTmoHo1dJMJgfgYXoY-3" value="&lt;b style=&quot;border-color: var(--border-color);&quot;&gt;Banking System&lt;br&gt;&amp;lt;&amp;lt;Loan&amp;gt;&amp;gt;&lt;br&gt;&lt;/b&gt;" style="text;html=1;strokeColor=none;fillColor=none;align=center;verticalAlign=middle;whiteSpace=wrap;rounded=0;" vertex="1" parent="1">
          <mxGeometry x="354" y="118" width="145" height="32" as="geometry" />
        </mxCell>
        <mxCell id="jOzTmoHo1dJMJgfgYXoY-4" value="Customer" style="shape=umlActor;verticalLabelPosition=bottom;verticalAlign=top;html=1;outlineConnect=0;" vertex="1" parent="1">
          <mxGeometry x="120" y="480" width="30" height="60" as="geometry" />
        </mxCell>
        <mxCell id="jOzTmoHo1dJMJgfgYXoY-5" value="Apply Loan" style="ellipse;whiteSpace=wrap;html=1;" vertex="1" parent="1">
          <mxGeometry x="335.5" y="177" width="180" height="63" as="geometry" />
        </mxCell>
        <mxCell id="jOzTmoHo1dJMJgfgYXoY-6" value="Check Status" style="ellipse;whiteSpace=wrap;html=1;" vertex="1" parent="1">
          <mxGeometry x="335" y="278" width="180" height="63" as="geometry" />
        </mxCell>
        <mxCell id="jOzTmoHo1dJMJgfgYXoY-7" value="Interest Rate" style="ellipse;whiteSpace=wrap;html=1;" vertex="1" parent="1">
          <mxGeometry x="335.5" y="370" width="180" height="63" as="geometry" />
        </mxCell>
        <mxCell id="jOzTmoHo1dJMJgfgYXoY-8" value="EMI" style="ellipse;whiteSpace=wrap;html=1;" vertex="1" parent="1">
          <mxGeometry x="335.5" y="470" width="180" height="63" as="geometry" />
        </mxCell>
        <mxCell id="jOzTmoHo1dJMJgfgYXoY-9" value="Transfer Money" style="ellipse;whiteSpace=wrap;html=1;" vertex="1" parent="1">
          <mxGeometry x="335" y="580" width="180" height="63" as="geometry" />
        </mxCell>
        <mxCell id="jOzTmoHo1dJMJgfgYXoY-10" value="Partial Payment" style="ellipse;whiteSpace=wrap;html=1;" vertex="1" parent="1">
          <mxGeometry x="335" y="690" width="180" height="63" as="geometry" />
        </mxCell>
        <mxCell id="jOzTmoHo1dJMJgfgYXoY-11" value="Loan Closure" style="ellipse;whiteSpace=wrap;html=1;" vertex="1" parent="1">
          <mxGeometry x="335" y="800" width="180" height="63" as="geometry" />
        </mxCell>
        <mxCell id="jOzTmoHo1dJMJgfgYXoY-12" value="" style="endArrow=classic;html=1;rounded=0;entryX=0;entryY=0.5;entryDx=0;entryDy=0;exitX=0.5;exitY=0.5;exitDx=0;exitDy=0;exitPerimeter=0;" edge="1" parent="1" source="jOzTmoHo1dJMJgfgYXoY-4" target="jOzTmoHo1dJMJgfgYXoY-5">
          <mxGeometry width="50" height="50" relative="1" as="geometry">
            <mxPoint x="270" y="290" as="sourcePoint" />
            <mxPoint x="320" y="240" as="targetPoint" />
          </mxGeometry>
        </mxCell>
        <mxCell id="jOzTmoHo1dJMJgfgYXoY-13" value="" style="endArrow=classic;html=1;rounded=0;entryX=0;entryY=0.5;entryDx=0;entryDy=0;exitX=0.5;exitY=0.5;exitDx=0;exitDy=0;exitPerimeter=0;" edge="1" parent="1" source="jOzTmoHo1dJMJgfgYXoY-4" target="jOzTmoHo1dJMJgfgYXoY-6">
          <mxGeometry width="50" height="50" relative="1" as="geometry">
            <mxPoint x="145" y="526" as="sourcePoint" />
            <mxPoint x="346" y="255" as="targetPoint" />
          </mxGeometry>
        </mxCell>
        <mxCell id="jOzTmoHo1dJMJgfgYXoY-14" value="" style="endArrow=classic;html=1;rounded=0;entryX=0;entryY=0.5;entryDx=0;entryDy=0;exitX=0.5;exitY=0.5;exitDx=0;exitDy=0;exitPerimeter=0;" edge="1" parent="1" source="jOzTmoHo1dJMJgfgYXoY-4" target="jOzTmoHo1dJMJgfgYXoY-7">
          <mxGeometry width="50" height="50" relative="1" as="geometry">
            <mxPoint x="145" y="520" as="sourcePoint" />
            <mxPoint x="345" y="320" as="targetPoint" />
          </mxGeometry>
        </mxCell>
        <mxCell id="jOzTmoHo1dJMJgfgYXoY-15" value="" style="endArrow=classic;html=1;rounded=0;entryX=0;entryY=0.5;entryDx=0;entryDy=0;exitX=0.5;exitY=0.5;exitDx=0;exitDy=0;exitPerimeter=0;" edge="1" parent="1" source="jOzTmoHo1dJMJgfgYXoY-4" target="jOzTmoHo1dJMJgfgYXoY-8">
          <mxGeometry width="50" height="50" relative="1" as="geometry">
            <mxPoint x="155" y="530" as="sourcePoint" />
            <mxPoint x="355" y="330" as="targetPoint" />
          </mxGeometry>
        </mxCell>
        <mxCell id="jOzTmoHo1dJMJgfgYXoY-16" value="" style="endArrow=classic;html=1;rounded=0;entryX=0;entryY=0.5;entryDx=0;entryDy=0;exitX=0.5;exitY=0.5;exitDx=0;exitDy=0;exitPerimeter=0;" edge="1" parent="1" source="jOzTmoHo1dJMJgfgYXoY-4" target="jOzTmoHo1dJMJgfgYXoY-9">
          <mxGeometry width="50" height="50" relative="1" as="geometry">
            <mxPoint x="165" y="540" as="sourcePoint" />
            <mxPoint x="365" y="340" as="targetPoint" />
          </mxGeometry>
        </mxCell>
        <mxCell id="jOzTmoHo1dJMJgfgYXoY-17" value="" style="endArrow=classic;html=1;rounded=0;entryX=0;entryY=0.5;entryDx=0;entryDy=0;exitX=0.5;exitY=0.5;exitDx=0;exitDy=0;exitPerimeter=0;" edge="1" parent="1" source="jOzTmoHo1dJMJgfgYXoY-4" target="jOzTmoHo1dJMJgfgYXoY-10">
          <mxGeometry width="50" height="50" relative="1" as="geometry">
            <mxPoint x="175" y="550" as="sourcePoint" />
            <mxPoint x="375" y="350" as="targetPoint" />
          </mxGeometry>
        </mxCell>
        <mxCell id="jOzTmoHo1dJMJgfgYXoY-18" value="" style="endArrow=classic;html=1;rounded=0;entryX=0;entryY=0.5;entryDx=0;entryDy=0;exitX=0.5;exitY=0.5;exitDx=0;exitDy=0;exitPerimeter=0;" edge="1" parent="1" source="jOzTmoHo1dJMJgfgYXoY-4" target="jOzTmoHo1dJMJgfgYXoY-11">
          <mxGeometry width="50" height="50" relative="1" as="geometry">
            <mxPoint x="185" y="560" as="sourcePoint" />
            <mxPoint x="385" y="360" as="targetPoint" />
          </mxGeometry>
        </mxCell>
        <mxCell id="jOzTmoHo1dJMJgfgYXoY-19" value="Bank System" style="shape=umlActor;verticalLabelPosition=bottom;verticalAlign=top;html=1;outlineConnect=0;" vertex="1" parent="1">
          <mxGeometry x="729" y="480" width="30" height="60" as="geometry" />
        </mxCell>
        <mxCell id="jOzTmoHo1dJMJgfgYXoY-20" value="" style="endArrow=classic;html=1;rounded=0;entryX=1;entryY=0.5;entryDx=0;entryDy=0;exitX=0.5;exitY=0.5;exitDx=0;exitDy=0;exitPerimeter=0;" edge="1" parent="1" source="jOzTmoHo1dJMJgfgYXoY-19" target="jOzTmoHo1dJMJgfgYXoY-6">
          <mxGeometry width="50" height="50" relative="1" as="geometry">
            <mxPoint x="590" y="398" as="sourcePoint" />
            <mxPoint x="791" y="390" as="targetPoint" />
          </mxGeometry>
        </mxCell>
        <mxCell id="jOzTmoHo1dJMJgfgYXoY-21" value="" style="endArrow=classic;html=1;rounded=0;entryX=1;entryY=0.5;entryDx=0;entryDy=0;exitX=0.5;exitY=0.5;exitDx=0;exitDy=0;exitPerimeter=0;" edge="1" parent="1" source="jOzTmoHo1dJMJgfgYXoY-19" target="jOzTmoHo1dJMJgfgYXoY-11">
          <mxGeometry width="50" height="50" relative="1" as="geometry">
            <mxPoint x="715" y="570" as="sourcePoint" />
            <mxPoint x="525" y="370" as="targetPoint" />
          </mxGeometry>
        </mxCell>
        <mxCell id="jOzTmoHo1dJMJgfgYXoY-28" value="Approve or Reject" style="edgeLabel;html=1;align=center;verticalAlign=middle;resizable=0;points=[];" connectable="0" vertex="1" parent="jOzTmoHo1dJMJgfgYXoY-21">
          <mxGeometry x="0.1867" y="-1" relative="1" as="geometry">
            <mxPoint x="23" y="-20" as="offset" />
          </mxGeometry>
        </mxCell>
        <mxCell id="jOzTmoHo1dJMJgfgYXoY-23" value="" style="endArrow=classic;html=1;rounded=0;entryX=1;entryY=0.5;entryDx=0;entryDy=0;exitX=0.5;exitY=0.5;exitDx=0;exitDy=0;exitPerimeter=0;" edge="1" parent="1" source="jOzTmoHo1dJMJgfgYXoY-19" target="jOzTmoHo1dJMJgfgYXoY-10">
          <mxGeometry width="50" height="50" relative="1" as="geometry">
            <mxPoint x="725" y="630" as="sourcePoint" />
            <mxPoint x="535" y="430" as="targetPoint" />
          </mxGeometry>
        </mxCell>
        <mxCell id="jOzTmoHo1dJMJgfgYXoY-24" value="Update Balance" style="edgeLabel;html=1;align=center;verticalAlign=middle;resizable=0;points=[];" connectable="0" vertex="1" parent="jOzTmoHo1dJMJgfgYXoY-23">
          <mxGeometry x="-0.2997" y="2" relative="1" as="geometry">
            <mxPoint x="-45" y="35" as="offset" />
          </mxGeometry>
        </mxCell>
        <mxCell id="jOzTmoHo1dJMJgfgYXoY-25" value="" style="endArrow=classic;html=1;rounded=0;entryX=1;entryY=0.5;entryDx=0;entryDy=0;exitX=0.5;exitY=0.5;exitDx=0;exitDy=0;exitPerimeter=0;" edge="1" parent="1" source="jOzTmoHo1dJMJgfgYXoY-19" target="jOzTmoHo1dJMJgfgYXoY-5">
          <mxGeometry width="50" height="50" relative="1" as="geometry">
            <mxPoint x="729" y="420" as="sourcePoint" />
            <mxPoint x="539" y="220" as="targetPoint" />
          </mxGeometry>
        </mxCell>
        <mxCell id="jOzTmoHo1dJMJgfgYXoY-26" value="Update Status" style="edgeLabel;html=1;align=center;verticalAlign=middle;resizable=0;points=[];" connectable="0" vertex="1" parent="jOzTmoHo1dJMJgfgYXoY-25">
          <mxGeometry x="-0.2997" y="2" relative="1" as="geometry">
            <mxPoint x="-43" as="offset" />
          </mxGeometry>
        </mxCell>
        <mxCell id="jOzTmoHo1dJMJgfgYXoY-27" value="Approve or Reject" style="edgeLabel;html=1;align=center;verticalAlign=middle;resizable=0;points=[];" connectable="0" vertex="1" parent="jOzTmoHo1dJMJgfgYXoY-25">
          <mxGeometry x="0.0769" y="2" relative="1" as="geometry">
            <mxPoint as="offset" />
          </mxGeometry>
        </mxCell>
      </root>
    </mxGraphModel>
  </diagram>
</mxfile>
